<svg width="40" height="40" viewBox="0 0 40 40" fill="none" xmlns="http://www.w3.org/2000/svg">
<g clip-path="url(#clip0_606_21)">
<path d="M38.9803 18.2432L21.7566 1.02003C20.7653 0.0281543 19.1566 0.0281543 18.1638 1.02003L14.5875 4.5969L19.1244 9.13378C20.1791 8.77784 21.3878 9.01659 22.2281 9.8569C23.0728 10.7025 23.3097 11.9216 22.945 12.9797L27.3175 17.3525C28.3753 16.9878 29.5963 17.2235 30.4406 18.0697C31.6219 19.25 31.6219 21.1635 30.4406 22.3444C30.1599 22.6253 29.8266 22.848 29.4598 23C29.0929 23.152 28.6997 23.2303 28.3027 23.2303C27.9056 23.2303 27.5124 23.152 27.1455 23C26.7787 22.848 26.4454 22.6253 26.1647 22.3444C25.743 21.9223 25.4556 21.385 25.3386 20.8C25.2215 20.215 25.2801 19.6084 25.5069 19.0566L21.4294 14.9791L21.4288 25.7107C21.7246 25.8563 21.9947 26.0493 22.2284 26.2819C23.4091 27.4622 23.4091 29.375 22.2284 30.5578C21.0475 31.7382 19.1334 31.7382 17.9538 30.5578C16.7731 29.3753 16.7731 27.4625 17.9538 26.2819C18.2369 25.9989 18.5732 25.7748 18.9434 25.6225V14.7916C18.5728 14.64 18.2363 14.4156 17.9538 14.1319C17.0594 13.2382 16.8441 11.9257 17.3028 10.8269L12.83 6.35409L1.02 18.1635C0.543541 18.6401 0.275879 19.2864 0.275879 19.9603C0.275879 20.6343 0.543541 21.2806 1.02 21.7572L18.2441 38.9803C19.2359 39.9722 20.8441 39.9722 21.8375 38.9803L38.9806 21.8372C39.457 21.3605 39.7246 20.7141 39.7245 20.0401C39.7244 19.3662 39.4568 18.7198 38.9803 18.2432Z" fill="#F34F29"/>
</g>
<defs>
<clipPath id="clip0_606_21">
<rect width="40" height="40" fill="white"/>
</clipPath>
</defs>
</svg>
