<svg width="40" height="40" viewBox="0 0 40 40" fill="none" xmlns="http://www.w3.org/2000/svg">
<path d="M14.8804 30.6625C14.8804 30.6625 13.3907 31.5294 15.942 31.8219C19.0332 32.175 20.6129 32.1244 24.0185 31.4806C24.0185 31.4806 24.9157 32.0416 26.1663 32.5278C18.5292 35.7997 8.88259 32.3381 14.8804 30.6625ZM13.9467 26.3922C13.9467 26.3922 12.2754 27.6294 14.8288 27.8938C18.131 28.2347 20.7382 28.2625 25.252 27.3938C25.252 27.3938 25.8748 28.0266 26.8557 28.3722C17.6238 31.0722 7.34134 28.5847 13.9467 26.3922Z" fill="#0074BD"/>
<path d="M21.813 19.1472C23.6959 21.3144 21.3193 23.2628 21.3193 23.2628C21.3193 23.2628 26.0971 20.7969 23.9034 17.7075C21.8537 14.8278 20.2824 13.3975 28.7893 8.46375C28.7893 8.46406 15.4359 11.7981 21.813 19.1472Z" fill="#EA2D2E"/>
<path d="M31.9135 33.8216C31.9135 33.8216 33.0163 34.7309 30.6985 35.4337C26.2916 36.7687 12.3529 37.1712 8.48163 35.4872C7.09069 34.8816 9.70007 34.0419 10.521 33.8647C11.3769 33.6794 11.8657 33.7131 11.8657 33.7131C10.3179 32.6234 1.86163 35.8537 7.571 36.7803C23.1401 39.3041 35.9513 35.6437 31.9135 33.8216ZM15.5976 21.9669C15.5976 21.9669 8.50819 23.6509 13.0873 24.2631C15.021 24.5219 18.8741 24.4625 22.4657 24.1612C25.4001 23.9147 28.3448 23.3881 28.3448 23.3881C28.3448 23.3881 27.311 23.8316 26.5623 24.3422C19.3616 26.2362 5.45475 25.3541 9.45882 23.4178C12.8438 21.7806 15.5976 21.9669 15.5976 21.9669ZM28.3154 29.0753C35.6344 25.2731 32.2501 21.6191 29.8879 22.1112C29.3104 22.2316 29.0513 22.3362 29.0513 22.3362C29.0513 22.3362 29.2663 21.9991 29.6763 21.8541C34.3491 20.2119 37.9423 26.6987 28.1691 29.2681C28.1691 29.2675 28.2813 29.1659 28.3154 29.0753Z" fill="#0074BD"/>
<path d="M23.9035 0.495972C23.9035 0.495972 27.9561 4.55097 20.0589 10.7844C13.7257 15.7863 18.6148 18.6375 20.0567 21.8966C16.3595 18.5613 13.6476 15.6247 15.4667 12.8919C18.1379 8.88128 25.5382 6.93597 23.9035 0.495972Z" fill="#EA2D2E"/>
<path d="M16.3169 39.3816C23.3407 39.8307 34.1294 39.1316 34.3847 35.8079C34.3847 35.8079 33.8938 37.0679 28.5794 38.0675C22.5838 39.1963 15.1876 39.0647 10.8022 38.3407C10.8022 38.341 11.7007 39.0847 16.3169 39.3816Z" fill="#0074BD"/>
</svg>
