<svg width="40" height="40" viewBox="0 0 40 40" fill="none" xmlns="http://www.w3.org/2000/svg">
<g clip-path="url(#clip0_606_34)">
<path d="M0.439941 0.439941H39.5599V39.5603H0.439941V0.439941Z" fill="#F0DB4F"/>
<path d="M36.3585 30.23C36.0719 28.4453 34.9082 26.9463 31.461 25.5485C30.2635 24.9981 28.9285 24.6041 28.5307 23.6966C28.3894 23.1685 28.3707 22.871 28.46 22.5513C28.7166 21.5138 29.955 21.1903 30.9366 21.4878C31.5688 21.6997 32.1672 22.1869 32.5282 22.9641C34.2163 21.871 34.2129 21.8781 35.3916 21.1269C34.96 20.4578 34.7297 20.1491 34.4472 19.8628C33.4319 18.7288 32.0485 18.1447 29.836 18.1894L28.6835 18.3385C27.5791 18.6175 26.5266 19.1972 25.9094 19.9744C24.0575 22.0756 24.5857 25.7531 26.8391 27.2666C29.0591 28.9328 32.3204 29.3119 32.7369 30.87C33.1422 32.7775 31.335 33.395 29.5388 33.1756C28.215 32.9003 27.4788 32.2275 26.6829 31.0041C25.2179 31.8519 25.2179 31.8519 23.7116 32.7181C24.0688 33.4991 24.4441 33.8525 25.0429 34.5291C27.8766 37.4035 34.9679 37.2622 36.2397 32.9116C36.2913 32.7622 36.6338 31.766 36.3585 30.23ZM21.7069 18.4197H18.0479L18.0329 27.8797C18.0329 29.8916 18.1369 31.736 17.8097 32.3013C17.2744 33.4131 15.8872 33.2753 15.255 33.0597C14.6116 32.7435 14.2844 32.2938 13.9054 31.6581C13.8013 31.4756 13.7232 31.3344 13.6969 31.3235L10.7219 33.1453C11.2166 34.1606 11.9454 35.0419 12.8788 35.6144C14.2732 36.4513 16.1472 36.7078 18.1072 36.2578C19.3829 35.8863 20.4835 35.1166 21.0597 33.945C21.8929 32.4091 21.7141 30.55 21.7066 28.4938C21.7254 25.1391 21.7069 21.785 21.7069 18.4197Z" fill="#323330"/>
</g>
<defs>
<clipPath id="clip0_606_34">
<rect width="40" height="40" fill="white"/>
</clipPath>
</defs>
</svg>
