<svg width="40" height="40" viewBox="0 0 40 40" fill="none" xmlns="http://www.w3.org/2000/svg">
<g clip-path="url(#clip0_606_4)">
<path d="M19.8307 0.0113525C9.70067 0.0113525 10.3332 4.42155 10.3332 4.42155L10.3444 8.99065H20.0113V10.3624H6.50489C6.50489 10.3624 0.0227051 9.62437 0.0227051 19.8855C0.0227051 30.147 5.68052 29.7831 5.68052 29.7831H9.05708V25.0214C9.05708 25.0214 8.87505 19.3414 14.6246 19.3414H24.2124C24.2124 19.3414 29.5991 19.4288 29.5991 14.1149V5.32869C29.5991 5.32869 30.4172 0.0113525 19.8307 0.0113525ZM14.5004 3.08398C14.7288 3.08377 14.955 3.12879 15.1661 3.21646C15.3772 3.30412 15.569 3.43272 15.7305 3.59488C15.8921 3.75704 16.0201 3.94958 16.1075 4.1615C16.1948 4.37341 16.2396 4.60053 16.2394 4.82986C16.2396 5.05919 16.1948 5.28631 16.1075 5.49823C16.0201 5.71014 15.8921 5.90269 15.7305 6.06485C15.569 6.22701 15.3772 6.3556 15.1661 6.44327C14.955 6.53093 14.7288 6.57595 14.5004 6.57574C14.2719 6.57595 14.0457 6.53093 13.8346 6.44327C13.6235 6.3556 13.4317 6.22701 13.2702 6.06485C13.1087 5.90269 12.9806 5.71014 12.8933 5.49823C12.8059 5.28631 12.7611 5.05919 12.7613 4.82986C12.7611 4.60053 12.8059 4.37341 12.8933 4.1615C12.9806 3.94958 13.1087 3.75704 13.2702 3.59488C13.4317 3.43272 13.6235 3.30412 13.8346 3.21646C14.0457 3.12879 14.2719 3.08377 14.5004 3.08398Z" fill="url(#paint0_linear_606_4)"/>
<path d="M20.1183 39.863C30.2483 39.863 29.6158 35.4528 29.6158 35.4528L29.6046 30.8838H19.9375V29.5121H33.444C33.444 29.5121 39.9261 30.2501 39.9261 19.9886C39.9261 9.72727 34.2683 10.0912 34.2683 10.0912H30.8918V14.8528C30.8918 14.8528 31.0738 20.5328 25.3243 20.5328H15.7365C15.7365 20.5328 10.3497 20.4454 10.3497 25.7594V34.5458C10.3497 34.5458 9.53177 39.863 20.1182 39.863M25.4485 36.7906C25.2201 36.7909 24.9938 36.7458 24.7827 36.6582C24.5716 36.5705 24.3799 36.4419 24.2183 36.2798C24.0568 36.1176 23.9287 35.925 23.8414 35.7131C23.7541 35.5012 23.7092 35.2741 23.7094 35.0448C23.7092 34.8154 23.754 34.5883 23.8413 34.3764C23.9287 34.1644 24.0567 33.9719 24.2183 33.8097C24.3798 33.6475 24.5716 33.5189 24.7827 33.4312C24.9938 33.3435 25.22 33.2985 25.4485 33.2987C25.6769 33.2985 25.9032 33.3435 26.1142 33.4312C26.3253 33.5189 26.5171 33.6475 26.6786 33.8096C26.8402 33.9718 26.9683 34.1643 27.0556 34.3762C27.1429 34.5882 27.1878 34.8153 27.1875 35.0446C27.1878 35.2739 27.1429 35.5011 27.0556 35.713C26.9683 35.9249 26.8402 36.1174 26.6786 36.2796C26.5171 36.4418 26.3253 36.5703 26.1142 36.658C25.9032 36.7457 25.6769 36.7909 25.4485 36.7906Z" fill="url(#paint1_linear_606_4)"/>
</g>
<defs>
<linearGradient id="paint0_linear_606_4" x1="383.493" y1="358.453" x2="2368.65" y2="2316.13" gradientUnits="userSpaceOnUse">
<stop stop-color="#387EB8"/>
<stop offset="1" stop-color="#366994"/>
</linearGradient>
<linearGradient id="paint1_linear_606_4" x1="576.353" y1="622.796" x2="2707.8" y2="2629.85" gradientUnits="userSpaceOnUse">
<stop stop-color="#FFE052"/>
<stop offset="1" stop-color="#FFC331"/>
</linearGradient>
<clipPath id="clip0_606_4">
<rect width="40" height="40" fill="white"/>
</clipPath>
</defs>
</svg>
