<svg width="40" height="40" viewBox="0 0 40 40" fill="none" xmlns="http://www.w3.org/2000/svg">
<path d="M20 23.0925C21.7259 23.0925 23.125 21.6934 23.125 19.9675C23.125 18.2416 21.7259 16.8425 20 16.8425C18.2741 16.8425 16.875 18.2416 16.875 19.9675C16.875 21.6934 18.2741 23.0925 20 23.0925Z" fill="#00D8FF"/>
<path d="M20 27.1325C16.2439 27.2233 12.4972 26.717 8.9 25.6325C7.23828 25.1057 5.68842 24.2759 4.32875 23.185C3.80991 22.8123 3.37784 22.3318 3.06218 21.7764C2.74652 21.221 2.55474 20.6039 2.5 19.9675C2.5 17.9012 4.77 15.8762 8.5725 14.5512C12.2659 13.3772 16.1249 12.8081 20 12.8662C23.8234 12.8128 27.6307 13.3715 31.2775 14.5212C32.8779 15.0314 34.3752 15.8211 35.7 16.8537C36.21 17.209 36.6356 17.6721 36.9466 18.2102C37.2577 18.7483 37.4466 19.3482 37.5 19.9675C37.5 22.115 34.9625 24.2912 30.875 25.6437C27.3474 26.6929 23.6798 27.195 20 27.1325ZM20 14.3612C16.2926 14.3117 12.601 14.8526 9.06375 15.9637C5.56375 17.185 3.995 18.855 3.995 19.9637C3.995 21.1237 5.68125 22.9475 9.38375 24.2137C12.8251 25.246 16.4083 25.7266 20 25.6375C23.5205 25.7004 27.0299 25.2241 30.4062 24.225C34.25 22.9512 36 21.125 36 19.9675C35.9369 19.5703 35.7922 19.1904 35.5749 18.852C35.3576 18.5136 35.0724 18.2239 34.7375 18.0012C33.5522 17.0851 32.2146 16.3853 30.7862 15.9337C27.2975 14.8384 23.6562 14.3076 20 14.3612Z" fill="#00D8FF"/>
<path d="M12.9 35.5537C12.3169 35.5671 11.7406 35.4256 11.23 35.1437C9.44 34.1112 8.82 31.1337 9.57125 27.1775C10.3996 23.3913 11.8348 19.7641 13.8213 16.4362C15.6847 13.0976 18.0702 10.0786 20.8875 7.49372C22.129 6.3621 23.5611 5.45939 25.1175 4.82747C25.6805 4.56364 26.2945 4.42688 26.9163 4.42688C27.538 4.42688 28.1521 4.56364 28.715 4.82747C30.5763 5.89997 31.1925 9.18497 30.3238 13.4012C29.4699 16.9819 28.072 20.4105 26.1788 23.5675C24.3809 26.8667 22.0705 29.8594 19.3338 32.4337C18.0472 33.6097 16.5542 34.5374 14.93 35.17C14.2798 35.4113 13.5935 35.541 12.9 35.5537ZM15.1163 17.1787C13.2214 20.3654 11.8458 23.8333 11.0413 27.4525C10.35 31.0962 11.0138 33.2875 11.9788 33.845C12.9788 34.4237 15.4062 33.875 18.3538 31.3C20.9663 28.8337 23.1715 25.969 24.8875 22.8125C26.7012 19.7944 28.0421 16.5164 28.8638 13.0925C29.6812 9.12372 28.975 6.69372 27.9725 6.11622C27.5968 5.97225 27.1952 5.9078 26.7933 5.92695C26.3914 5.9461 25.9978 6.04843 25.6375 6.22747C24.2521 6.79915 22.9784 7.61075 21.875 8.62497C19.1833 11.101 16.9046 13.9911 15.125 17.1862L15.1163 17.1787Z" fill="#00D8FF"/>
<path d="M27.0963 35.57C25.4026 35.57 23.2513 34.545 21.0113 32.6187C18.1447 30.0103 15.7188 26.9555 13.8276 23.5725C11.866 20.2904 10.4421 16.7157 9.61006 12.9837C9.24919 11.3418 9.18232 9.64896 9.41256 7.98372C9.46578 7.36598 9.65389 6.76744 9.9636 6.2303C10.2733 5.69317 10.6971 5.23051 11.2051 4.87497C13.0638 3.79872 16.2176 4.90497 19.4363 7.76247C22.112 10.2902 24.3843 13.2134 26.1738 16.43C28.1342 19.6354 29.5729 23.1319 30.4363 26.7887C30.8127 28.4909 30.8708 30.248 30.6076 31.9712C30.5449 32.6067 30.3456 33.2212 30.0233 33.7724C29.7009 34.3237 29.2632 34.7987 28.7401 35.165C28.2378 35.4434 27.6704 35.5832 27.0963 35.57ZM15.1213 22.82C16.9356 26.053 19.2529 28.9767 21.9863 31.4812C24.7976 33.9 27.0276 34.42 27.9863 33.8562C28.9863 33.275 29.7238 30.9025 28.9638 27.0637C28.1312 23.5724 26.7512 20.2349 24.8751 17.175C23.1673 14.0964 20.9985 11.2973 18.4438 8.87497C15.4138 6.18497 12.9563 5.58372 11.9551 6.16372C11.643 6.41733 11.3869 6.73288 11.2029 7.09046C11.019 7.44804 10.9112 7.83987 10.8863 8.24122C10.6876 9.72633 10.7523 11.2349 11.0776 12.6975C11.8779 16.2664 13.2435 19.6845 15.1226 22.8225L15.1213 22.82Z" fill="#00D8FF"/>
</svg>
