<svg width="180" height="60" viewBox="0 0 180 60" fill="none" xmlns="http://www.w3.org/2000/svg">
<rect x="1.5" y="1.5" width="177" height="57" rx="6.5" stroke="#2C5C7F" stroke-width="3"/>
<g clip-path="url(#clip0_432_182)">
<path d="M10.4399 10.4399H49.5599V49.5603H10.4399V10.4399Z" fill="#F0DB4F"/>
<path d="M46.3585 40.23C46.0719 38.4453 44.9082 36.9463 41.461 35.5485C40.2635 34.9981 38.9285 34.6041 38.5307 33.6966C38.3894 33.1685 38.3707 32.871 38.46 32.5513C38.7166 31.5138 39.955 31.1903 40.9366 31.4878C41.5688 31.6997 42.1672 32.1869 42.5282 32.9641C44.2163 31.871 44.2129 31.8781 45.3916 31.1269C44.96 30.4578 44.7297 30.1491 44.4472 29.8628C43.4319 28.7288 42.0485 28.1447 39.836 28.1894L38.6835 28.3385C37.5791 28.6175 36.5266 29.1972 35.9094 29.9744C34.0575 32.0756 34.5857 35.7531 36.8391 37.2666C39.0591 38.9328 42.3204 39.3119 42.7369 40.87C43.1422 42.7775 41.335 43.395 39.5388 43.1756C38.215 42.9003 37.4788 42.2275 36.6829 41.0041C35.2179 41.8519 35.2179 41.8519 33.7116 42.7181C34.0688 43.4991 34.4441 43.8525 35.0429 44.5291C37.8766 47.4035 44.9679 47.2622 46.2397 42.9116C46.2913 42.7622 46.6338 41.766 46.3585 40.23ZM31.7069 28.4197H28.0479L28.0329 37.8797C28.0329 39.8916 28.1369 41.736 27.8097 42.3013C27.2744 43.4131 25.8872 43.2753 25.255 43.0597C24.6116 42.7435 24.2844 42.2938 23.9054 41.6581C23.8013 41.4756 23.7232 41.3344 23.6969 41.3235L20.7219 43.1453C21.2166 44.1606 21.9454 45.0419 22.8788 45.6144C24.2732 46.4513 26.1472 46.7078 28.1072 46.2578C29.3829 45.8863 30.4835 45.1166 31.0597 43.945C31.8929 42.4091 31.7141 40.55 31.7066 38.4938C31.7254 35.1391 31.7069 31.785 31.7069 28.4197Z" fill="#323330"/>
</g>
<path d="M62.5444 22.4545H64.7319V32.767C64.7319 33.6998 64.5472 34.4976 64.1779 35.1605C63.8133 35.8234 63.2996 36.33 62.6367 36.6804C61.9738 37.026 61.1973 37.1989 60.3072 37.1989C59.488 37.1989 58.7518 37.0497 58.0984 36.7514C57.4497 36.4531 56.936 36.0199 56.5572 35.4517C56.1831 34.8788 55.9961 34.1828 55.9961 33.3636H58.1765C58.1765 33.7661 58.2688 34.1141 58.4535 34.4077C58.6429 34.7012 58.9009 34.9309 59.2276 35.0966C59.5591 35.2576 59.9379 35.3381 60.364 35.3381C60.828 35.3381 61.221 35.241 61.543 35.0469C61.8697 34.848 62.1183 34.5568 62.2887 34.1733C62.4592 33.7898 62.5444 33.321 62.5444 32.767V22.4545ZM70.9304 37.2415C70.2391 37.2415 69.6141 37.1136 69.0554 36.858C68.4967 36.5975 68.054 36.2211 67.7273 35.7287C67.4053 35.2363 67.2443 34.6326 67.2443 33.9176C67.2443 33.3021 67.3627 32.7955 67.5994 32.3977C67.8362 32 68.1558 31.6851 68.5582 31.4531C68.9607 31.2211 69.4105 31.0459 69.9077 30.9276C70.4048 30.8092 70.9115 30.7192 71.4276 30.6577C72.081 30.5819 72.6113 30.5204 73.0185 30.473C73.4257 30.4209 73.7216 30.3381 73.9062 30.2244C74.0909 30.1108 74.1832 29.9261 74.1832 29.6705V29.6207C74.1832 29.0005 74.008 28.5199 73.6577 28.179C73.312 27.8381 72.7959 27.6676 72.1094 27.6676C71.3944 27.6676 70.831 27.8262 70.419 28.1435C70.0118 28.456 69.7301 28.804 69.5739 29.1875L67.5781 28.733C67.8149 28.0701 68.1605 27.535 68.6151 27.1278C69.0743 26.7159 69.6023 26.4176 70.1989 26.233C70.7955 26.0436 71.4228 25.9489 72.081 25.9489C72.5166 25.9489 72.9782 26.0009 73.4659 26.1051C73.9583 26.2045 74.4176 26.3892 74.8438 26.6591C75.2746 26.929 75.6274 27.3149 75.902 27.8168C76.1766 28.3139 76.3139 28.9602 76.3139 29.7557V37H74.2401V35.5085H74.1548C74.0175 35.7831 73.8116 36.053 73.5369 36.3182C73.2623 36.5833 72.9096 36.8035 72.4787 36.9787C72.0478 37.1539 71.5317 37.2415 70.9304 37.2415ZM71.392 35.5369C71.9792 35.5369 72.4811 35.4209 72.8977 35.1889C73.3191 34.9569 73.6387 34.6539 73.8565 34.2798C74.0791 33.901 74.1903 33.4962 74.1903 33.0653V31.6591C74.1146 31.7348 73.9678 31.8059 73.75 31.8722C73.5369 31.9337 73.2931 31.9882 73.0185 32.0355C72.7438 32.0781 72.4763 32.1184 72.2159 32.1562C71.9555 32.1894 71.7377 32.2178 71.5625 32.2415C71.1506 32.2936 70.7741 32.3812 70.4332 32.5043C70.0971 32.6274 69.8272 32.8049 69.6236 33.0369C69.4247 33.2642 69.3253 33.5672 69.3253 33.946C69.3253 34.4716 69.5194 34.8693 69.9077 35.1392C70.2959 35.4044 70.7907 35.5369 71.392 35.5369ZM88.0842 26.0909L84.1282 37H81.8555L77.8924 26.0909H80.1722L82.935 34.4858H83.0487L85.8043 26.0909H88.0842ZM92.9421 37.2415C92.2508 37.2415 91.6258 37.1136 91.0671 36.858C90.5084 36.5975 90.0657 36.2211 89.739 35.7287C89.417 35.2363 89.256 34.6326 89.256 33.9176C89.256 33.3021 89.3744 32.7955 89.6112 32.3977C89.8479 32 90.1675 31.6851 90.57 31.4531C90.9724 31.2211 91.4222 31.0459 91.9194 30.9276C92.4165 30.8092 92.9232 30.7192 93.4393 30.6577C94.0927 30.5819 94.623 30.5204 95.0302 30.473C95.4374 30.4209 95.7333 30.3381 95.918 30.2244C96.1026 30.1108 96.195 29.9261 96.195 29.6705V29.6207C96.195 29.0005 96.0198 28.5199 95.6694 28.179C95.3237 27.8381 94.8076 27.6676 94.1211 27.6676C93.4061 27.6676 92.8427 27.8262 92.4308 28.1435C92.0236 28.456 91.7418 28.804 91.5856 29.1875L89.5898 28.733C89.8266 28.0701 90.1722 27.535 90.6268 27.1278C91.0861 26.7159 91.614 26.4176 92.2106 26.233C92.8072 26.0436 93.4345 25.9489 94.0927 25.9489C94.5283 25.9489 94.9899 26.0009 95.4776 26.1051C95.9701 26.2045 96.4293 26.3892 96.8555 26.6591C97.2863 26.929 97.6391 27.3149 97.9137 27.8168C98.1883 28.3139 98.3256 28.9602 98.3256 29.7557V37H96.2518V35.5085H96.1665C96.0292 35.7831 95.8233 36.053 95.5487 36.3182C95.274 36.5833 94.9213 36.8035 94.4904 36.9787C94.0595 37.1539 93.5434 37.2415 92.9421 37.2415ZM93.4038 35.5369C93.9909 35.5369 94.4928 35.4209 94.9094 35.1889C95.3308 34.9569 95.6505 34.6539 95.8683 34.2798C96.0908 33.901 96.2021 33.4962 96.2021 33.0653V31.6591C96.1263 31.7348 95.9795 31.8059 95.7617 31.8722C95.5487 31.9337 95.3048 31.9882 95.0302 32.0355C94.7556 32.0781 94.488 32.1184 94.2276 32.1562C93.9672 32.1894 93.7494 32.2178 93.5742 32.2415C93.1623 32.2936 92.7859 32.3812 92.445 32.5043C92.1088 32.6274 91.8389 32.8049 91.6353 33.0369C91.4364 33.2642 91.337 33.5672 91.337 33.946C91.337 34.4716 91.5311 34.8693 91.9194 35.1392C92.3076 35.4044 92.8024 35.5369 93.4038 35.5369ZM109.258 26.2756C109.182 25.6032 108.87 25.0824 108.32 24.7131C107.771 24.339 107.08 24.152 106.246 24.152C105.65 24.152 105.134 24.2467 104.698 24.4361C104.263 24.6207 103.924 24.8764 103.683 25.2031C103.446 25.5251 103.327 25.892 103.327 26.304C103.327 26.6496 103.408 26.9479 103.569 27.1989C103.735 27.4498 103.95 27.6605 104.215 27.831C104.485 27.9967 104.774 28.1364 105.082 28.25C105.389 28.3589 105.685 28.4489 105.969 28.5199L107.39 28.8892C107.854 29.0028 108.33 29.1567 108.817 29.3509C109.305 29.545 109.757 29.8007 110.174 30.1179C110.591 30.4351 110.927 30.8281 111.183 31.2969C111.443 31.7656 111.573 32.3267 111.573 32.9801C111.573 33.804 111.36 34.5355 110.934 35.1747C110.513 35.8139 109.899 36.3182 109.094 36.6875C108.294 37.0568 107.326 37.2415 106.19 37.2415C105.101 37.2415 104.158 37.0687 103.363 36.723C102.567 36.3774 101.945 35.8873 101.495 35.2528C101.045 34.6136 100.797 33.8561 100.749 32.9801H102.951C102.994 33.5057 103.164 33.9437 103.462 34.294C103.765 34.6397 104.151 34.8977 104.62 35.0682C105.094 35.2339 105.612 35.3168 106.175 35.3168C106.796 35.3168 107.347 35.2197 107.83 35.0256C108.318 34.8267 108.701 34.5521 108.981 34.2017C109.26 33.8466 109.4 33.4323 109.4 32.9588C109.4 32.5279 109.277 32.1752 109.031 31.9006C108.789 31.6259 108.46 31.3987 108.043 31.2188C107.631 31.0388 107.165 30.8802 106.644 30.7429L104.925 30.2741C103.761 29.9569 102.837 29.4905 102.156 28.875C101.478 28.2595 101.14 27.4451 101.14 26.4318C101.14 25.5937 101.367 24.8622 101.822 24.2372C102.276 23.6122 102.892 23.1269 103.668 22.7812C104.445 22.4309 105.321 22.2557 106.296 22.2557C107.281 22.2557 108.15 22.4285 108.903 22.7741C109.66 23.1198 110.257 23.5956 110.692 24.2017C111.128 24.803 111.355 25.4943 111.374 26.2756H109.258ZM118.62 37.2202C117.565 37.2202 116.655 36.9811 115.893 36.5028C115.136 36.0199 114.553 35.3546 114.146 34.5071C113.739 33.6596 113.535 32.6889 113.535 31.5952C113.535 30.4872 113.743 29.5095 114.16 28.6619C114.577 27.8097 115.164 27.1444 115.922 26.6662C116.679 26.188 117.572 25.9489 118.599 25.9489C119.428 25.9489 120.166 26.1027 120.815 26.4105C121.464 26.7135 121.987 27.1397 122.385 27.6889C122.787 28.2382 123.026 28.8797 123.102 29.6136H121.035C120.922 29.1023 120.661 28.6619 120.254 28.2926C119.851 27.9233 119.312 27.7386 118.635 27.7386C118.043 27.7386 117.524 27.8949 117.079 28.2074C116.639 28.5152 116.296 28.9555 116.049 29.5284C115.803 30.0966 115.68 30.7689 115.68 31.5455C115.68 32.3409 115.801 33.0275 116.042 33.6051C116.284 34.1828 116.625 34.6302 117.065 34.9474C117.51 35.2647 118.033 35.4233 118.635 35.4233C119.037 35.4233 119.402 35.3499 119.728 35.2031C120.06 35.0516 120.337 34.8362 120.559 34.5568C120.787 34.2775 120.945 33.9413 121.035 33.5483H123.102C123.026 34.2538 122.797 34.8835 122.413 35.4375C122.029 35.9915 121.516 36.4271 120.872 36.7443C120.233 37.0616 119.482 37.2202 118.62 37.2202ZM125.373 37V26.0909H127.425V27.8239H127.539C127.738 27.2367 128.088 26.7751 128.59 26.4389C129.097 26.098 129.67 25.9276 130.309 25.9276C130.442 25.9276 130.598 25.9323 130.778 25.9418C130.962 25.9512 131.107 25.9631 131.211 25.9773V28.0085C131.126 27.9848 130.974 27.9588 130.756 27.9304C130.539 27.8973 130.321 27.8807 130.103 27.8807C129.601 27.8807 129.154 27.9872 128.761 28.2003C128.372 28.4086 128.065 28.6998 127.837 29.0739C127.61 29.4432 127.496 29.8646 127.496 30.3381V37H125.373ZM133.049 37V26.0909H135.172V37H133.049ZM134.121 24.4077C133.752 24.4077 133.435 24.2846 133.169 24.0384C132.909 23.7874 132.779 23.4891 132.779 23.1435C132.779 22.7931 132.909 22.4948 133.169 22.2486C133.435 21.9976 133.752 21.8722 134.121 21.8722C134.49 21.8722 134.805 21.9976 135.066 22.2486C135.331 22.4948 135.463 22.7931 135.463 23.1435C135.463 23.4891 135.331 23.7874 135.066 24.0384C134.805 24.2846 134.49 24.4077 134.121 24.4077ZM138.029 41.0909V26.0909H140.103V27.8594H140.281C140.404 27.6321 140.581 27.3693 140.813 27.071C141.045 26.7727 141.367 26.5123 141.779 26.2898C142.191 26.0625 142.736 25.9489 143.413 25.9489C144.293 25.9489 145.079 26.1714 145.771 26.6165C146.462 27.0616 147.004 27.7031 147.397 28.5412C147.795 29.3793 147.994 30.3878 147.994 31.5668C147.994 32.7457 147.797 33.7566 147.404 34.5994C147.011 35.4375 146.471 36.0838 145.785 36.5384C145.098 36.9882 144.315 37.2131 143.434 37.2131C142.771 37.2131 142.229 37.1018 141.808 36.8793C141.391 36.6567 141.064 36.3963 140.827 36.098C140.591 35.7997 140.408 35.5346 140.281 35.3026H140.153V41.0909H138.029ZM140.11 31.5455C140.11 32.3125 140.221 32.9848 140.444 33.5625C140.666 34.1402 140.988 34.5923 141.41 34.919C141.831 35.241 142.347 35.402 142.958 35.402C143.593 35.402 144.123 35.2339 144.549 34.8977C144.975 34.5568 145.297 34.0952 145.515 33.5128C145.737 32.9304 145.849 32.2746 145.849 31.5455C145.849 30.8258 145.74 30.1795 145.522 29.6065C145.309 29.0336 144.987 28.5814 144.556 28.25C144.13 27.9186 143.597 27.7528 142.958 27.7528C142.343 27.7528 141.822 27.9115 141.396 28.2287C140.974 28.5459 140.655 28.9886 140.437 29.5568C140.219 30.125 140.11 30.7879 140.11 31.5455ZM155.465 26.0909V27.7955H149.506V26.0909H155.465ZM151.104 23.4773H153.228V33.7969C153.228 34.2088 153.29 34.5189 153.413 34.7273C153.536 34.9309 153.694 35.0705 153.888 35.1463C154.087 35.2173 154.303 35.2528 154.535 35.2528C154.705 35.2528 154.854 35.241 154.982 35.2173C155.11 35.1937 155.21 35.1747 155.281 35.1605L155.664 36.9148C155.541 36.9621 155.366 37.0095 155.138 37.0568C154.911 37.1089 154.627 37.1373 154.286 37.142C153.728 37.1515 153.207 37.0521 152.724 36.8438C152.241 36.6354 151.85 36.3134 151.552 35.8778C151.254 35.4422 151.104 34.8954 151.104 34.2372V23.4773Z" fill="#F1F9FF"/>
<defs>
<clipPath id="clip0_432_182">
<rect width="40" height="40" fill="white" transform="translate(10 10)"/>
</clipPath>
</defs>
</svg>
