<svg width="180" height="60" viewBox="0 0 180 60" fill="none" xmlns="http://www.w3.org/2000/svg">
<rect x="1.5" y="1.5" width="177" height="57" rx="6.5" stroke="#2C5C7F" stroke-width="3"/>
<path d="M17.3775 44.0013L14.5687 12.5H45.4312L42.6187 43.9963L29.9812 47.5L17.3775 44.0013Z" fill="#E44F26"/>
<path d="M30 44.8225L40.2125 41.9913L42.615 15.0763H30V44.8225Z" fill="#F1662A"/>
<path d="M30 26.7587H24.8875L24.535 22.8025H30V18.9387H20.3125L20.405 19.9762L21.3538 30.6225H30V26.7587ZM30 36.7925L29.9825 36.7975L25.68 35.6362L25.405 32.555H21.5262L22.0675 38.62L29.9825 40.8175L30 40.8125V36.7925Z" fill="#EBEBEB"/>
<path d="M29.9862 26.7587V30.6225H34.7437L34.2962 35.6337L29.9862 36.7962V40.8162L37.9075 38.62L37.965 37.9675L38.8725 27.7962L38.9675 26.7587H29.9862ZM29.9862 18.9387V22.8025H39.3187L39.3962 21.935L39.5725 19.9762L39.665 18.9387H29.9862Z" fill="white"/>
<path d="M51.598 37V22.4545H53.7926V28.7756H61.044V22.4545H63.2457V37H61.044V30.6577H53.7926V37H51.598ZM65.7244 24.3438V22.4545H76.9815V24.3438H72.4432V37H70.2557V24.3438H65.7244ZM79.4691 22.4545H82.1325L86.7631 33.7614H86.9336L91.5643 22.4545H94.2276V37H92.1396V26.4744H92.0046L87.7148 36.9787H85.9819L81.6921 26.4673H81.5572V37H79.4691V22.4545ZM97.4183 37V22.4545H99.6129V35.1108H106.204V37H97.4183ZM118.603 37.1989C117.712 37.1989 116.912 37.0284 116.202 36.6875C115.497 36.3419 114.933 35.8684 114.512 35.267C114.09 34.6657 113.865 33.9792 113.837 33.2074H115.968C116.02 33.8324 116.297 34.3461 116.799 34.7486C117.301 35.151 117.902 35.3523 118.603 35.3523C119.161 35.3523 119.656 35.2244 120.087 34.9688C120.523 34.7083 120.864 34.3509 121.11 33.8963C121.361 33.4418 121.486 32.9233 121.486 32.3409C121.486 31.7491 121.358 31.2211 121.103 30.7571C120.847 30.2931 120.494 29.9285 120.044 29.6634C119.599 29.3982 119.088 29.2633 118.51 29.2585C118.07 29.2585 117.627 29.3343 117.182 29.4858C116.737 29.6373 116.377 29.8362 116.103 30.0824L114.093 29.7841L114.909 22.4545H122.907V24.3366H116.735L116.273 28.4062H116.358C116.642 28.1316 117.019 27.902 117.488 27.7173C117.961 27.5327 118.468 27.4403 119.007 27.4403C119.893 27.4403 120.681 27.651 121.373 28.0724C122.069 28.4938 122.615 29.0691 123.013 29.7983C123.416 30.5227 123.614 31.3561 123.61 32.2983C123.614 33.2405 123.401 34.081 122.971 34.8196C122.544 35.5582 121.953 36.1406 121.195 36.5668C120.442 36.9882 119.578 37.1989 118.603 37.1989Z" fill="#F1F9FF"/>
</svg>
