<svg width="180" height="60" viewBox="0 0 180 60" fill="none" xmlns="http://www.w3.org/2000/svg">
<rect x="1.5" y="1.5" width="177" height="57" rx="6.5" stroke="#2C5C7F" stroke-width="3"/>
<path d="M24.8804 40.6625C24.8804 40.6625 23.3907 41.5294 25.942 41.8219C29.0332 42.175 30.6129 42.1244 34.0185 41.4806C34.0185 41.4806 34.9157 42.0416 36.1663 42.5278C28.5292 45.7997 18.8826 42.3381 24.8804 40.6625ZM23.9467 36.3922C23.9467 36.3922 22.2754 37.6294 24.8288 37.8938C28.131 38.2347 30.7382 38.2625 35.252 37.3938C35.252 37.3938 35.8748 38.0266 36.8557 38.3722C27.6238 41.0722 17.3413 38.5847 23.9467 36.3922Z" fill="#0074BD"/>
<path d="M31.813 29.1472C33.6959 31.3144 31.3193 33.2628 31.3193 33.2628C31.3193 33.2628 36.0971 30.7969 33.9034 27.7075C31.8537 24.8278 30.2824 23.3975 38.7893 18.4637C38.7893 18.4641 25.4359 21.7981 31.813 29.1472Z" fill="#EA2D2E"/>
<path d="M41.9135 43.8216C41.9135 43.8216 43.0163 44.7309 40.6985 45.4337C36.2916 46.7687 22.3529 47.1712 18.4816 45.4872C17.0907 44.8816 19.7001 44.0419 20.521 43.8647C21.3769 43.6794 21.8657 43.7131 21.8657 43.7131C20.3179 42.6234 11.8616 45.8537 17.571 46.7803C33.1401 49.3041 45.9513 45.6437 41.9135 43.8216ZM25.5976 31.9669C25.5976 31.9669 18.5082 33.6509 23.0873 34.2631C25.021 34.5219 28.8741 34.4625 32.4657 34.1612C35.4001 33.9147 38.3448 33.3881 38.3448 33.3881C38.3448 33.3881 37.311 33.8316 36.5623 34.3422C29.3616 36.2362 15.4548 35.3541 19.4588 33.4178C22.8438 31.7806 25.5976 31.9669 25.5976 31.9669ZM38.3154 39.0753C45.6344 35.2731 42.2501 31.6191 39.8879 32.1112C39.3104 32.2316 39.0513 32.3362 39.0513 32.3362C39.0513 32.3362 39.2663 31.9991 39.6763 31.8541C44.3491 30.2119 47.9423 36.6987 38.1691 39.2681C38.1691 39.2675 38.2813 39.1659 38.3154 39.0753Z" fill="#0074BD"/>
<path d="M33.9035 10.496C33.9035 10.496 37.9561 14.551 30.0589 20.7844C23.7257 25.7863 28.6148 28.6375 30.0567 31.8966C26.3595 28.5613 23.6476 25.6247 25.4667 22.8919C28.1379 18.8813 35.5382 16.936 33.9035 10.496Z" fill="#EA2D2E"/>
<path d="M26.3169 49.3816C33.3407 49.8307 44.1294 49.1316 44.3847 45.8079C44.3847 45.8079 43.8938 47.0679 38.5794 48.0675C32.5838 49.1963 25.1876 49.0647 20.8022 48.3407C20.8022 48.341 21.7007 49.0847 26.3169 49.3816Z" fill="#0074BD"/>
<path d="M62.5444 22.4545H64.7319V32.767C64.7319 33.6998 64.5472 34.4976 64.1779 35.1605C63.8133 35.8234 63.2996 36.33 62.6367 36.6804C61.9738 37.026 61.1973 37.1989 60.3072 37.1989C59.488 37.1989 58.7518 37.0497 58.0984 36.7514C57.4497 36.4531 56.936 36.0199 56.5572 35.4517C56.1831 34.8788 55.9961 34.1828 55.9961 33.3636H58.1765C58.1765 33.7661 58.2688 34.1141 58.4535 34.4077C58.6429 34.7012 58.9009 34.9309 59.2276 35.0966C59.5591 35.2576 59.9379 35.3381 60.364 35.3381C60.828 35.3381 61.221 35.241 61.543 35.0469C61.8697 34.848 62.1183 34.5568 62.2887 34.1733C62.4592 33.7898 62.5444 33.321 62.5444 32.767V22.4545ZM70.9304 37.2415C70.2391 37.2415 69.6141 37.1136 69.0554 36.858C68.4967 36.5975 68.054 36.2211 67.7273 35.7287C67.4053 35.2363 67.2443 34.6326 67.2443 33.9176C67.2443 33.3021 67.3627 32.7955 67.5994 32.3977C67.8362 32 68.1558 31.6851 68.5582 31.4531C68.9607 31.2211 69.4105 31.0459 69.9077 30.9276C70.4048 30.8092 70.9115 30.7192 71.4276 30.6577C72.081 30.5819 72.6113 30.5204 73.0185 30.473C73.4257 30.4209 73.7216 30.3381 73.9062 30.2244C74.0909 30.1108 74.1832 29.9261 74.1832 29.6705V29.6207C74.1832 29.0005 74.008 28.5199 73.6577 28.179C73.312 27.8381 72.7959 27.6676 72.1094 27.6676C71.3944 27.6676 70.831 27.8262 70.419 28.1435C70.0118 28.456 69.7301 28.804 69.5739 29.1875L67.5781 28.733C67.8149 28.0701 68.1605 27.535 68.6151 27.1278C69.0743 26.7159 69.6023 26.4176 70.1989 26.233C70.7955 26.0436 71.4228 25.9489 72.081 25.9489C72.5166 25.9489 72.9782 26.0009 73.4659 26.1051C73.9583 26.2045 74.4176 26.3892 74.8438 26.6591C75.2746 26.929 75.6274 27.3149 75.902 27.8168C76.1766 28.3139 76.3139 28.9602 76.3139 29.7557V37H74.2401V35.5085H74.1548C74.0175 35.7831 73.8116 36.053 73.5369 36.3182C73.2623 36.5833 72.9096 36.8035 72.4787 36.9787C72.0478 37.1539 71.5317 37.2415 70.9304 37.2415ZM71.392 35.5369C71.9792 35.5369 72.4811 35.4209 72.8977 35.1889C73.3191 34.9569 73.6387 34.6539 73.8565 34.2798C74.0791 33.901 74.1903 33.4962 74.1903 33.0653V31.6591C74.1146 31.7348 73.9678 31.8059 73.75 31.8722C73.5369 31.9337 73.2931 31.9882 73.0185 32.0355C72.7438 32.0781 72.4763 32.1184 72.2159 32.1562C71.9555 32.1894 71.7377 32.2178 71.5625 32.2415C71.1506 32.2936 70.7741 32.3812 70.4332 32.5043C70.0971 32.6274 69.8272 32.8049 69.6236 33.0369C69.4247 33.2642 69.3253 33.5672 69.3253 33.946C69.3253 34.4716 69.5194 34.8693 69.9077 35.1392C70.2959 35.4044 70.7907 35.5369 71.392 35.5369ZM88.0842 26.0909L84.1282 37H81.8555L77.8924 26.0909H80.1722L82.935 34.4858H83.0487L85.8043 26.0909H88.0842ZM92.9421 37.2415C92.2508 37.2415 91.6258 37.1136 91.0671 36.858C90.5084 36.5975 90.0657 36.2211 89.739 35.7287C89.417 35.2363 89.256 34.6326 89.256 33.9176C89.256 33.3021 89.3744 32.7955 89.6112 32.3977C89.8479 32 90.1675 31.6851 90.57 31.4531C90.9724 31.2211 91.4222 31.0459 91.9194 30.9276C92.4165 30.8092 92.9232 30.7192 93.4393 30.6577C94.0927 30.5819 94.623 30.5204 95.0302 30.473C95.4374 30.4209 95.7333 30.3381 95.918 30.2244C96.1026 30.1108 96.195 29.9261 96.195 29.6705V29.6207C96.195 29.0005 96.0198 28.5199 95.6694 28.179C95.3237 27.8381 94.8076 27.6676 94.1211 27.6676C93.4061 27.6676 92.8427 27.8262 92.4308 28.1435C92.0236 28.456 91.7418 28.804 91.5856 29.1875L89.5898 28.733C89.8266 28.0701 90.1722 27.535 90.6268 27.1278C91.0861 26.7159 91.614 26.4176 92.2106 26.233C92.8072 26.0436 93.4345 25.9489 94.0927 25.9489C94.5283 25.9489 94.9899 26.0009 95.4776 26.1051C95.9701 26.2045 96.4293 26.3892 96.8555 26.6591C97.2863 26.929 97.6391 27.3149 97.9137 27.8168C98.1883 28.3139 98.3256 28.9602 98.3256 29.7557V37H96.2518V35.5085H96.1665C96.0292 35.7831 95.8233 36.053 95.5487 36.3182C95.274 36.5833 94.9213 36.8035 94.4904 36.9787C94.0595 37.1539 93.5434 37.2415 92.9421 37.2415ZM93.4038 35.5369C93.9909 35.5369 94.4928 35.4209 94.9094 35.1889C95.3308 34.9569 95.6505 34.6539 95.8683 34.2798C96.0908 33.901 96.2021 33.4962 96.2021 33.0653V31.6591C96.1263 31.7348 95.9795 31.8059 95.7617 31.8722C95.5487 31.9337 95.3048 31.9882 95.0302 32.0355C94.7556 32.0781 94.488 32.1184 94.2276 32.1562C93.9672 32.1894 93.7494 32.2178 93.5742 32.2415C93.1623 32.2936 92.7859 32.3812 92.445 32.5043C92.1088 32.6274 91.8389 32.8049 91.6353 33.0369C91.4364 33.2642 91.337 33.5672 91.337 33.946C91.337 34.4716 91.5311 34.8693 91.9194 35.1392C92.3076 35.4044 92.8024 35.5369 93.4038 35.5369Z" fill="#F1F9FF"/>
</svg>
