<svg width="180" height="60" viewBox="0 0 180 60" fill="none" xmlns="http://www.w3.org/2000/svg">
<rect x="1.5" y="1.5" width="177" height="57" rx="6.5" stroke="#2C5C7F" stroke-width="3"/>
<path d="M30 33.0925C31.7259 33.0925 33.125 31.6934 33.125 29.9675C33.125 28.2416 31.7259 26.8425 30 26.8425C28.2741 26.8425 26.875 28.2416 26.875 29.9675C26.875 31.6934 28.2741 33.0925 30 33.0925Z" fill="#00D8FF"/>
<path d="M30 37.1325C26.2439 37.2234 22.4972 36.717 18.9 35.6325C17.2383 35.1057 15.6884 34.2759 14.3288 33.185C13.8099 32.8123 13.3778 32.3318 13.0622 31.7764C12.7465 31.2211 12.5547 30.604 12.5 29.9675C12.5 27.9012 14.77 25.8762 18.5725 24.5512C22.2659 23.3772 26.1249 22.8082 30 22.8662C33.8234 22.8128 37.6307 23.3716 41.2775 24.5212C42.8779 25.0314 44.3752 25.8212 45.7 26.8537C46.21 27.209 46.6356 27.6722 46.9466 28.2102C47.2577 28.7483 47.4466 29.3483 47.5 29.9675C47.5 32.115 44.9625 34.2912 40.875 35.6437C37.3474 36.693 33.6798 37.195 30 37.1325V37.1325ZM30 24.3612C26.2926 24.3117 22.601 24.8526 19.0637 25.9637C15.5637 27.185 13.995 28.855 13.995 29.9637C13.995 31.1237 15.6813 32.9475 19.3837 34.2137C22.8251 35.2461 26.4083 35.7266 30 35.6375C33.5205 35.7005 37.0299 35.2241 40.4063 34.225C44.25 32.9512 46 31.125 46 29.9675C45.9369 29.5703 45.7922 29.1905 45.5749 28.852C45.3576 28.5136 45.0724 28.2239 44.7375 28.0012C43.5522 27.0852 42.2146 26.3853 40.7862 25.9337C37.2975 24.8384 33.6562 24.3076 30 24.3612V24.3612Z" fill="#00D8FF"/>
<path d="M22.9 45.5537C22.3169 45.5671 21.7406 45.4257 21.23 45.1437C19.44 44.1112 18.82 41.1337 19.5713 37.1775C20.3996 33.3914 21.8348 29.7641 23.8213 26.4362C25.6847 23.0976 28.0702 20.0786 30.8875 17.4937C32.1289 16.3621 33.5611 15.4594 35.1175 14.8275C35.6805 14.5637 36.2945 14.4269 36.9163 14.4269C37.538 14.4269 38.1521 14.5637 38.715 14.8275C40.5763 15.9 41.1925 19.185 40.3238 23.4012C39.4699 26.9819 38.072 30.4105 36.1788 33.5675C34.3809 36.8667 32.0705 39.8594 29.3338 42.4337C28.0472 43.6097 26.5542 44.5374 24.93 45.17C24.2798 45.4113 23.5935 45.5411 22.9 45.5537V45.5537ZM25.1163 27.1787C23.2214 30.3654 21.8458 33.8334 21.0413 37.4525C20.35 41.0962 21.0138 43.2875 21.9788 43.845C22.9788 44.4237 25.4063 43.875 28.3538 41.3C30.9663 38.8337 33.1715 35.969 34.8875 32.8125C36.7012 29.7944 38.0421 26.5164 38.8638 23.0925C39.6813 19.1237 38.975 16.6937 37.9725 16.1162C37.5968 15.9723 37.1952 15.9078 36.7933 15.927C36.3914 15.9461 35.9978 16.0485 35.6375 16.2275C34.2521 16.7992 32.9784 17.6108 31.875 18.625C29.1833 21.101 26.9046 23.9912 25.125 27.1862L25.1163 27.1787Z" fill="#00D8FF"/>
<path d="M37.0963 45.57C35.4026 45.57 33.2513 44.545 31.0113 42.6188C28.1447 40.0103 25.7188 36.9555 23.8276 33.5725C21.866 30.2905 20.4421 26.7157 19.6101 22.9838C19.2492 21.3419 19.1823 19.649 19.4126 17.9838C19.4658 17.366 19.6539 16.7675 19.9636 16.2303C20.2733 15.6932 20.6971 15.2305 21.2051 14.875C23.0638 13.7988 26.2176 14.905 29.4363 17.7625C32.112 20.2902 34.3843 23.2134 36.1738 26.43C38.1342 29.6354 39.5729 33.1319 40.4363 36.7888C40.8127 38.4909 40.8708 40.248 40.6076 41.9713C40.5449 42.6068 40.3456 43.2212 40.0233 43.7725C39.7009 44.3237 39.2632 44.7988 38.7401 45.165C38.2378 45.4434 37.6704 45.5832 37.0963 45.57V45.57ZM25.1213 32.82C26.9356 36.053 29.2529 38.9767 31.9863 41.4813C34.7976 43.9 37.0276 44.42 37.9863 43.8563C38.9863 43.275 39.7238 40.9025 38.9638 37.0638C38.1312 33.5724 36.7512 30.2349 34.8751 27.175C33.1673 24.0964 30.9985 21.2973 28.4438 18.875C25.4138 16.185 22.9563 15.5838 21.9551 16.1638C21.643 16.4174 21.3869 16.7329 21.2029 17.0905C21.019 17.4481 20.9112 17.8399 20.8863 18.2413C20.6876 19.7264 20.7523 21.2349 21.0776 22.6975C21.8779 26.2664 23.2435 29.6845 25.1226 32.8225L25.1213 32.82Z" fill="#00D8FF"/>
<path d="M51.598 37V22.4545H56.7827C57.9096 22.4545 58.8447 22.6487 59.5881 23.0369C60.3362 23.4252 60.8949 23.9626 61.2642 24.6491C61.6335 25.331 61.8182 26.1193 61.8182 27.0142C61.8182 27.9044 61.6312 28.688 61.2571 29.3651C60.8878 30.0374 60.3291 30.5606 59.581 30.9347C58.8376 31.3087 57.9025 31.4957 56.7756 31.4957H52.848V29.6065H56.5767C57.2869 29.6065 57.8646 29.5047 58.3097 29.3011C58.7595 29.0975 59.0885 28.8016 59.2969 28.4134C59.5052 28.0251 59.6094 27.5587 59.6094 27.0142C59.6094 26.465 59.5028 25.9891 59.2898 25.5866C59.0814 25.1842 58.7524 24.8764 58.3026 24.6634C57.8575 24.4455 57.2727 24.3366 56.5483 24.3366H53.7926V37H51.598ZM58.7784 30.4375L62.3722 37H59.8722L56.3494 30.4375H58.7784ZM68.8832 37.2202C67.8084 37.2202 66.8827 36.9905 66.1062 36.5312C65.3344 36.0672 64.7378 35.4162 64.3164 34.5781C63.8997 33.7353 63.6914 32.7481 63.6914 31.6165C63.6914 30.4991 63.8997 29.5142 64.3164 28.6619C64.7378 27.8097 65.3249 27.1444 66.0778 26.6662C66.8353 26.188 67.7208 25.9489 68.734 25.9489C69.3496 25.9489 69.9461 26.0507 70.5238 26.2543C71.1014 26.4579 71.6199 26.7775 72.0792 27.2131C72.5385 27.6487 72.9007 28.2145 73.1658 28.9105C73.431 29.6018 73.5636 30.4422 73.5636 31.4318V32.1847H64.8917V30.5938H71.4826C71.4826 30.035 71.369 29.5402 71.1417 29.1094C70.9144 28.6738 70.5948 28.3305 70.1829 28.0795C69.7757 27.8286 69.2975 27.7031 68.7482 27.7031C68.1516 27.7031 67.6308 27.8499 67.1857 28.1435C66.7454 28.4323 66.4045 28.8111 66.163 29.2798C65.9263 29.7438 65.8079 30.2481 65.8079 30.7926V32.0355C65.8079 32.7647 65.9357 33.3849 66.1914 33.8963C66.4518 34.4077 66.814 34.7983 67.2781 35.0682C67.7421 35.3333 68.2842 35.4659 68.9045 35.4659C69.3069 35.4659 69.6739 35.4091 70.0053 35.2955C70.3368 35.1771 70.6232 35.0019 70.8647 34.7699C71.1062 34.5379 71.2908 34.2514 71.4187 33.9105L73.4286 34.2727C73.2676 34.8646 72.9788 35.383 72.5621 35.8281C72.1502 36.2685 71.6317 36.6117 71.0067 36.858C70.3865 37.0994 69.6786 37.2202 68.8832 37.2202ZM79.0945 37.2415C78.4032 37.2415 77.7782 37.1136 77.2195 36.858C76.6607 36.5975 76.218 36.2211 75.8913 35.7287C75.5694 35.2363 75.4084 34.6326 75.4084 33.9176C75.4084 33.3021 75.5268 32.7955 75.7635 32.3977C76.0002 32 76.3198 31.6851 76.7223 31.4531C77.1248 31.2211 77.5746 31.0459 78.0717 30.9276C78.5689 30.8092 79.0755 30.7192 79.5916 30.6577C80.245 30.5819 80.7753 30.5204 81.1825 30.473C81.5897 30.4209 81.8857 30.3381 82.0703 30.2244C82.255 30.1108 82.3473 29.9261 82.3473 29.6705V29.6207C82.3473 29.0005 82.1721 28.5199 81.8217 28.179C81.4761 27.8381 80.96 27.6676 80.2734 27.6676C79.5585 27.6676 78.995 27.8262 78.5831 28.1435C78.1759 28.456 77.8942 28.804 77.7379 29.1875L75.7422 28.733C75.9789 28.0701 76.3246 27.535 76.7791 27.1278C77.2384 26.7159 77.7663 26.4176 78.3629 26.233C78.9595 26.0436 79.5869 25.9489 80.245 25.9489C80.6806 25.9489 81.1423 26.0009 81.63 26.1051C82.1224 26.2045 82.5817 26.3892 83.0078 26.6591C83.4387 26.929 83.7914 27.3149 84.0661 27.8168C84.3407 28.3139 84.478 28.9602 84.478 29.7557V37H82.4041V35.5085H82.3189C82.1816 35.7831 81.9756 36.053 81.701 36.3182C81.4264 36.5833 81.0736 36.8035 80.6428 36.9787C80.2119 37.1539 79.6958 37.2415 79.0945 37.2415ZM79.5561 35.5369C80.1432 35.5369 80.6451 35.4209 81.0618 35.1889C81.4832 34.9569 81.8028 34.6539 82.0206 34.2798C82.2431 33.901 82.3544 33.4962 82.3544 33.0653V31.6591C82.2786 31.7348 82.1319 31.8059 81.9141 31.8722C81.701 31.9337 81.4571 31.9882 81.1825 32.0355C80.9079 32.0781 80.6404 32.1184 80.38 32.1562C80.1196 32.1894 79.9018 32.2178 79.7266 32.2415C79.3146 32.2936 78.9382 32.3812 78.5973 32.5043C78.2611 32.6274 77.9912 32.8049 77.7876 33.0369C77.5888 33.2642 77.4893 33.5672 77.4893 33.946C77.4893 34.4716 77.6835 34.8693 78.0717 35.1392C78.46 35.4044 78.9548 35.5369 79.5561 35.5369ZM91.9016 37.2202C90.8458 37.2202 89.9367 36.9811 89.1744 36.5028C88.4168 36.0199 87.8344 35.3546 87.4272 34.5071C87.02 33.6596 86.8164 32.6889 86.8164 31.5952C86.8164 30.4872 87.0247 29.5095 87.4414 28.6619C87.8581 27.8097 88.4452 27.1444 89.2028 26.6662C89.9603 26.188 90.8529 25.9489 91.8803 25.9489C92.7089 25.9489 93.4476 26.1027 94.0962 26.4105C94.7449 26.7135 95.2681 27.1397 95.6658 27.6889C96.0683 28.2382 96.3074 28.8797 96.3832 29.6136H94.3164C94.2028 29.1023 93.9424 28.6619 93.5352 28.2926C93.1327 27.9233 92.5929 27.7386 91.9158 27.7386C91.324 27.7386 90.8055 27.8949 90.3604 28.2074C89.9201 28.5152 89.5768 28.9555 89.3306 29.5284C89.0844 30.0966 88.9613 30.7689 88.9613 31.5455C88.9613 32.3409 89.082 33.0275 89.3235 33.6051C89.565 34.1828 89.9059 34.6302 90.3462 34.9474C90.7913 35.2647 91.3145 35.4233 91.9158 35.4233C92.3183 35.4233 92.6829 35.3499 93.0096 35.2031C93.341 35.0516 93.618 34.8362 93.8406 34.5568C94.0678 34.2775 94.2264 33.9413 94.3164 33.5483H96.3832C96.3074 34.2538 96.0778 34.8835 95.6942 35.4375C95.3107 35.9915 94.797 36.4271 94.1531 36.7443C93.5138 37.0616 92.7634 37.2202 91.9016 37.2202ZM103.746 26.0909V27.7955H97.7876V26.0909H103.746ZM99.3857 23.4773H101.509V33.7969C101.509 34.2088 101.571 34.5189 101.694 34.7273C101.817 34.9309 101.976 35.0705 102.17 35.1463C102.369 35.2173 102.584 35.2528 102.816 35.2528C102.987 35.2528 103.136 35.241 103.263 35.2173C103.391 35.1937 103.491 35.1747 103.562 35.1605L103.945 36.9148C103.822 36.9621 103.647 37.0095 103.42 37.0568C103.192 37.1089 102.908 37.1373 102.567 37.142C102.009 37.1515 101.488 37.0521 101.005 36.8438C100.522 36.6354 100.131 36.3134 99.8331 35.8778C99.5348 35.4422 99.3857 34.8954 99.3857 34.2372V23.4773Z" fill="#F1F9FF"/>
</svg>
