<svg width="180" height="60" viewBox="0 0 180 60" fill="none" xmlns="http://www.w3.org/2000/svg">
<rect x="1.5" y="1.5" width="177" height="57" rx="6.5" stroke="#2C5C7F" stroke-width="3"/>
<g clip-path="url(#clip0_432_217)">
<path d="M29.8307 10.0114C19.7007 10.0114 20.3332 14.4215 20.3332 14.4215L20.3444 18.9906H30.0113V20.3624H16.5049C16.5049 20.3624 10.0227 19.6244 10.0227 29.8855C10.0227 40.147 15.6805 39.7831 15.6805 39.7831H19.0571V35.0214C19.0571 35.0214 18.875 29.3414 24.6246 29.3414H34.2124C34.2124 29.3414 39.5991 29.4288 39.5991 24.1149V15.3287C39.5991 15.3287 40.4172 10.0114 29.8307 10.0114ZM24.5004 13.084C24.7288 13.0838 24.955 13.1288 25.1661 13.2165C25.3772 13.3041 25.569 13.4327 25.7305 13.5949C25.8921 13.757 26.0201 13.9496 26.1075 14.1615C26.1948 14.3734 26.2396 14.6005 26.2394 14.8299C26.2396 15.0592 26.1948 15.2863 26.1075 15.4982C26.0201 15.7101 25.8921 15.9027 25.7305 16.0648C25.569 16.227 25.3772 16.3556 25.1661 16.4433C24.955 16.5309 24.7288 16.576 24.5004 16.5757C24.2719 16.576 24.0457 16.5309 23.8346 16.4433C23.6235 16.3556 23.4317 16.227 23.2702 16.0648C23.1087 15.9027 22.9806 15.7101 22.8933 15.4982C22.8059 15.2863 22.7611 15.0592 22.7613 14.8299C22.7611 14.6005 22.8059 14.3734 22.8933 14.1615C22.9806 13.9496 23.1087 13.757 23.2702 13.5949C23.4317 13.4327 23.6235 13.3041 23.8346 13.2165C24.0457 13.1288 24.2719 13.0838 24.5004 13.084Z" fill="url(#paint0_linear_432_217)"/>
<path d="M30.1183 49.863C40.2483 49.863 39.6158 45.4528 39.6158 45.4528L39.6046 40.8838H29.9375V39.5121H43.444C43.444 39.5121 49.9261 40.2501 49.9261 29.9886C49.9261 19.7273 44.2683 20.0912 44.2683 20.0912H40.8918V24.8528C40.8918 24.8528 41.0738 30.5328 35.3243 30.5328H25.7365C25.7365 30.5328 20.3497 30.4454 20.3497 35.7594V44.5458C20.3497 44.5458 19.5318 49.863 30.1182 49.863M35.4485 46.7906C35.2201 46.7909 34.9938 46.7458 34.7827 46.6582C34.5716 46.5705 34.3799 46.4419 34.2183 46.2798C34.0568 46.1176 33.9287 45.925 33.8414 45.7131C33.7541 45.5012 33.7092 45.2741 33.7094 45.0448C33.7092 44.8154 33.754 44.5883 33.8413 44.3764C33.9287 44.1644 34.0567 43.9719 34.2183 43.8097C34.3798 43.6475 34.5716 43.5189 34.7827 43.4312C34.9938 43.3435 35.22 43.2985 35.4485 43.2987C35.6769 43.2985 35.9032 43.3435 36.1142 43.4312C36.3253 43.5189 36.5171 43.6475 36.6786 43.8096C36.8402 43.9718 36.9683 44.1643 37.0556 44.3762C37.1429 44.5882 37.1878 44.8153 37.1875 45.0446C37.1878 45.2739 37.1429 45.5011 37.0556 45.713C36.9683 45.9249 36.8402 46.1174 36.6786 46.2796C36.5171 46.4418 36.3253 46.5703 36.1142 46.658C35.9032 46.7457 35.6769 46.7909 35.4485 46.7906Z" fill="url(#paint1_linear_432_217)"/>
</g>
<path d="M56.891 37V22.4545H62.0756C63.2073 22.4545 64.1448 22.6605 64.8881 23.0724C65.6315 23.4844 66.1879 24.0478 66.5572 24.7628C66.9265 25.473 67.1112 26.2732 67.1112 27.1634C67.1112 28.0582 66.9241 28.8632 66.5501 29.5781C66.1808 30.2884 65.622 30.8518 64.8739 31.2685C64.1306 31.6804 63.1954 31.8864 62.0685 31.8864H58.5032V30.0256H61.8697C62.5846 30.0256 63.1647 29.9025 63.6097 29.6562C64.0548 29.4053 64.3815 29.0644 64.5898 28.6335C64.7982 28.2027 64.9023 27.7126 64.9023 27.1634C64.9023 26.6141 64.7982 26.1264 64.5898 25.7003C64.3815 25.2741 64.0524 24.9403 63.6026 24.6989C63.1576 24.4574 62.5704 24.3366 61.8413 24.3366H59.0856V37H56.891ZM70.8558 41.0909C70.5386 41.0909 70.2498 41.0649 69.9893 41.0128C69.7289 40.9654 69.5348 40.9134 69.407 40.8565L69.9183 39.1165C70.3066 39.2206 70.6522 39.2656 70.9553 39.2514C71.2583 39.2372 71.5258 39.1236 71.7578 38.9105C71.9946 38.6974 72.2029 38.3494 72.3828 37.8665L72.6456 37.142L68.6541 26.0909H70.9268L73.6896 34.5568H73.8033L76.5661 26.0909H78.8459L74.3501 38.456C74.1418 39.0241 73.8767 39.5047 73.5547 39.8977C73.2327 40.2955 72.8492 40.5938 72.4041 40.7926C71.959 40.9915 71.4429 41.0909 70.8558 41.0909ZM85.9339 26.0909V27.7955H79.9751V26.0909H85.9339ZM81.5732 23.4773H83.6967V33.7969C83.6967 34.2088 83.7583 34.5189 83.8814 34.7273C84.0045 34.9309 84.1631 35.0705 84.3572 35.1463C84.5561 35.2173 84.7715 35.2528 85.0036 35.2528C85.174 35.2528 85.3232 35.241 85.451 35.2173C85.5788 35.1937 85.6783 35.1747 85.7493 35.1605L86.1328 36.9148C86.0097 36.9621 85.8345 37.0095 85.6072 37.0568C85.38 37.1089 85.0959 37.1373 84.755 37.142C84.1963 37.1515 83.6754 37.0521 83.1925 36.8438C82.7095 36.6354 82.3189 36.3134 82.0206 35.8778C81.7223 35.4422 81.5732 34.8954 81.5732 34.2372V23.4773ZM90.641 30.5227V37H88.5174V22.4545H90.6126V27.8665H90.7475C91.0032 27.2794 91.3938 26.813 91.9194 26.4673C92.445 26.1217 93.1315 25.9489 93.979 25.9489C94.7272 25.9489 95.3806 26.1027 95.9393 26.4105C96.5027 26.7183 96.9383 27.1776 97.2461 27.7884C97.5586 28.3944 97.7148 29.152 97.7148 30.0611V37H95.5913V30.3168C95.5913 29.5166 95.3853 28.8963 94.9734 28.456C94.5614 28.0109 93.9885 27.7884 93.2546 27.7884C92.7527 27.7884 92.3029 27.8949 91.9052 28.108C91.5122 28.321 91.2021 28.6335 90.9748 29.0455C90.7522 29.4527 90.641 29.9451 90.641 30.5227ZM105.144 37.2202C104.121 37.2202 103.229 36.9858 102.466 36.517C101.704 36.0483 101.112 35.3925 100.691 34.5497C100.269 33.7069 100.059 32.7221 100.059 31.5952C100.059 30.4635 100.269 29.474 100.691 28.6264C101.112 27.7789 101.704 27.1207 102.466 26.652C103.229 26.1832 104.121 25.9489 105.144 25.9489C106.167 25.9489 107.059 26.1832 107.821 26.652C108.584 27.1207 109.176 27.7789 109.597 28.6264C110.018 29.474 110.229 30.4635 110.229 31.5952C110.229 32.7221 110.018 33.7069 109.597 34.5497C109.176 35.3925 108.584 36.0483 107.821 36.517C107.059 36.9858 106.167 37.2202 105.144 37.2202ZM105.151 35.4375C105.814 35.4375 106.363 35.2623 106.799 34.9119C107.234 34.5616 107.556 34.0952 107.765 33.5128C107.978 32.9304 108.084 32.2888 108.084 31.5881C108.084 30.892 107.978 30.2528 107.765 29.6705C107.556 29.0833 107.234 28.6122 106.799 28.2571C106.363 27.902 105.814 27.7244 105.151 27.7244C104.483 27.7244 103.929 27.902 103.489 28.2571C103.053 28.6122 102.729 29.0833 102.516 29.6705C102.308 30.2528 102.203 30.892 102.203 31.5881C102.203 32.2888 102.308 32.9304 102.516 33.5128C102.729 34.0952 103.053 34.5616 103.489 34.9119C103.929 35.2623 104.483 35.4375 105.151 35.4375ZM114.723 30.5227V37H112.599V26.0909H114.638V27.8665H114.773C115.024 27.2888 115.417 26.8248 115.952 26.4744C116.491 26.1241 117.171 25.9489 117.99 25.9489C118.733 25.9489 119.384 26.1051 119.943 26.4176C120.502 26.7254 120.935 27.1847 121.243 27.7955C121.551 28.4062 121.705 29.1615 121.705 30.0611V37H119.581V30.3168C119.581 29.526 119.375 28.9081 118.963 28.4631C118.551 28.0133 117.985 27.7884 117.266 27.7884C116.773 27.7884 116.335 27.8949 115.952 28.108C115.573 28.321 115.272 28.6335 115.05 29.0455C114.832 29.4527 114.723 29.9451 114.723 30.5227Z" fill="#F1F9FF"/>
<defs>
<linearGradient id="paint0_linear_432_217" x1="393.493" y1="368.453" x2="2378.65" y2="2326.13" gradientUnits="userSpaceOnUse">
<stop stop-color="#387EB8"/>
<stop offset="1" stop-color="#366994"/>
</linearGradient>
<linearGradient id="paint1_linear_432_217" x1="586.353" y1="632.796" x2="2717.8" y2="2639.85" gradientUnits="userSpaceOnUse">
<stop stop-color="#FFE052"/>
<stop offset="1" stop-color="#FFC331"/>
</linearGradient>
<clipPath id="clip0_432_217">
<rect width="40" height="40" fill="white" transform="translate(10 10)"/>
</clipPath>
</defs>
</svg>
