<svg width="180" height="60" viewBox="0 0 180 60" fill="none" xmlns="http://www.w3.org/2000/svg">
<rect x="1.5" y="1.5" width="177" height="57" rx="6.5" stroke="#2C5C7F" stroke-width="3"/>
<g clip-path="url(#clip0_432_203)">
<path d="M18.75 52.5C23.58 52.5 27.5 49.14 27.5 45V37.5H18.75C13.92 37.5 10 40.86 10 45C10 49.14 13.92 52.5 18.75 52.5Z" fill="#0ACF83"/>
<path d="M10 30C10 25.86 13.92 22.5 18.75 22.5H27.5V37.5H18.75C13.92 37.5 10 34.14 10 30Z" fill="#A259FF"/>
<path d="M10 15C10 10.86 13.92 7.5 18.75 7.5H27.5V22.5H18.75C13.92 22.5 10 19.14 10 15Z" fill="#F24E1E"/>
<path d="M27.5 7.5H36.25C41.08 7.5 45 10.86 45 15C45 19.14 41.08 22.5 36.25 22.5H27.5V7.5Z" fill="#FF7262"/>
<path d="M45 30C45 34.14 41.08 37.5 36.25 37.5C31.42 37.5 27.5 34.14 27.5 30C27.5 25.86 31.42 22.5 36.25 22.5C41.08 22.5 45 25.86 45 30Z" fill="#1ABCFE"/>
</g>
<path d="M51.891 37V22.4545H60.9109V24.3438H54.0856V28.7756H60.2646V30.6577H54.0856V37H51.891ZM63.4393 37V26.0909H65.5629V37H63.4393ZM64.5117 24.4077C64.1424 24.4077 63.8252 24.2846 63.56 24.0384C63.2996 23.7874 63.1694 23.4891 63.1694 23.1435C63.1694 22.7931 63.2996 22.4948 63.56 22.2486C63.8252 21.9976 64.1424 21.8722 64.5117 21.8722C64.881 21.8722 65.1959 21.9976 65.4563 22.2486C65.7215 22.4948 65.854 22.7931 65.854 23.1435C65.854 23.4891 65.7215 23.7874 65.4563 24.0384C65.1959 24.2846 64.881 24.4077 64.5117 24.4077ZM72.9936 41.3182C72.1271 41.3182 71.3814 41.2045 70.7564 40.9773C70.1361 40.75 69.6295 40.4493 69.2365 40.0753C68.8435 39.7012 68.55 39.2917 68.3558 38.8466L70.1811 38.0938C70.3089 38.3021 70.4794 38.5223 70.6925 38.7543C70.9103 38.991 71.2038 39.1922 71.5732 39.358C71.9472 39.5237 72.4278 39.6065 73.0149 39.6065C73.8198 39.6065 74.4851 39.41 75.0107 39.017C75.5362 38.6288 75.799 38.0085 75.799 37.1562V35.0114H75.6641C75.5362 35.2434 75.3516 35.5014 75.1101 35.7855C74.8733 36.0696 74.5466 36.3158 74.13 36.5241C73.7133 36.7325 73.1712 36.8366 72.5036 36.8366C71.6418 36.8366 70.8653 36.6354 70.174 36.233C69.4875 35.8258 68.9429 35.2268 68.5405 34.4361C68.1428 33.6406 67.9439 32.6629 67.9439 31.5028C67.9439 30.3428 68.1404 29.3485 68.5334 28.5199C68.9311 27.6913 69.4756 27.0568 70.1669 26.6165C70.8582 26.1714 71.6418 25.9489 72.5178 25.9489C73.1948 25.9489 73.7417 26.0625 74.1584 26.2898C74.575 26.5123 74.8994 26.7727 75.1314 27.071C75.3681 27.3693 75.5504 27.6321 75.6783 27.8594H75.8345V26.0909H77.9155V37.2415C77.9155 38.179 77.6977 38.9484 77.2621 39.5497C76.8265 40.151 76.237 40.5961 75.4936 40.8849C74.755 41.1738 73.9216 41.3182 72.9936 41.3182ZM72.9723 35.0753C73.5831 35.0753 74.0992 34.9332 74.5206 34.6491C74.9467 34.3603 75.2687 33.9484 75.4865 33.4134C75.709 32.8736 75.8203 32.2273 75.8203 31.4744C75.8203 30.7405 75.7114 30.0942 75.4936 29.5355C75.2758 28.9768 74.9562 28.5412 74.5348 28.2287C74.1134 27.9115 73.5926 27.7528 72.9723 27.7528C72.3331 27.7528 71.8004 27.9186 71.3743 28.25C70.9482 28.5767 70.6262 29.0218 70.4084 29.5852C70.1953 30.1487 70.0888 30.7784 70.0888 31.4744C70.0888 32.1894 70.1977 32.8168 70.4155 33.3565C70.6333 33.8963 70.9553 34.3177 71.3814 34.6207C71.8123 34.9238 72.3426 35.0753 72.9723 35.0753ZM80.7635 37V26.0909H82.8018V27.8665H82.9368C83.1641 27.2652 83.5357 26.7964 84.0518 26.4602C84.5679 26.1193 85.1858 25.9489 85.9055 25.9489C86.6347 25.9489 87.2455 26.1193 87.7379 26.4602C88.2351 26.8011 88.602 27.2699 88.8388 27.8665H88.9524C89.2128 27.2841 89.6271 26.8201 90.1953 26.4744C90.7635 26.1241 91.4406 25.9489 92.2266 25.9489C93.2161 25.9489 94.0234 26.259 94.6484 26.8793C95.2782 27.4995 95.593 28.4347 95.593 29.6847V37H93.4695V29.8835C93.4695 29.1449 93.2682 28.6098 92.8658 28.2784C92.4633 27.947 91.9827 27.7812 91.424 27.7812C90.7327 27.7812 90.1953 27.9943 89.8118 28.4205C89.4283 28.8419 89.2365 29.384 89.2365 30.0469V37H87.12V29.7486C87.12 29.1567 86.9354 28.6809 86.5661 28.321C86.1967 27.9612 85.7161 27.7812 85.1243 27.7812C84.7218 27.7812 84.3501 27.8878 84.0092 28.1009C83.6731 28.3092 83.4008 28.6004 83.1925 28.9744C82.9889 29.3485 82.8871 29.7817 82.8871 30.2741V37H80.7635ZM101.614 37.2415C100.923 37.2415 100.298 37.1136 99.739 36.858C99.1803 36.5975 98.7376 36.2211 98.4109 35.7287C98.0889 35.2363 97.9279 34.6326 97.9279 33.9176C97.9279 33.3021 98.0463 32.7955 98.283 32.3977C98.5198 32 98.8394 31.6851 99.2418 31.4531C99.6443 31.2211 100.094 31.0459 100.591 30.9276C101.088 30.8092 101.595 30.7192 102.111 30.6577C102.765 30.5819 103.295 30.5204 103.702 30.473C104.109 30.4209 104.405 30.3381 104.59 30.2244C104.775 30.1108 104.867 29.9261 104.867 29.6705V29.6207C104.867 29.0005 104.692 28.5199 104.341 28.179C103.996 27.8381 103.48 27.6676 102.793 27.6676C102.078 27.6676 101.515 27.8262 101.103 28.1435C100.695 28.456 100.414 28.804 100.257 29.1875L98.2617 28.733C98.4985 28.0701 98.8441 27.535 99.2987 27.1278C99.7579 26.7159 100.286 26.4176 100.882 26.233C101.479 26.0436 102.106 25.9489 102.765 25.9489C103.2 25.9489 103.662 26.0009 104.15 26.1051C104.642 26.2045 105.101 26.3892 105.527 26.6591C105.958 26.929 106.311 27.3149 106.586 27.8168C106.86 28.3139 106.998 28.9602 106.998 29.7557V37H104.924V35.5085H104.838C104.701 35.7831 104.495 36.053 104.221 36.3182C103.946 36.5833 103.593 36.8035 103.162 36.9787C102.731 37.1539 102.215 37.2415 101.614 37.2415ZM102.076 35.5369C102.663 35.5369 103.165 35.4209 103.581 35.1889C104.003 34.9569 104.322 34.6539 104.54 34.2798C104.763 33.901 104.874 33.4962 104.874 33.0653V31.6591C104.798 31.7348 104.651 31.8059 104.434 31.8722C104.221 31.9337 103.977 31.9882 103.702 32.0355C103.427 32.0781 103.16 32.1184 102.9 32.1562C102.639 32.1894 102.421 32.2178 102.246 32.2415C101.834 32.2936 101.458 32.3812 101.117 32.5043C100.781 32.6274 100.511 32.8049 100.307 33.0369C100.108 33.2642 100.009 33.5672 100.009 33.946C100.009 34.4716 100.203 34.8693 100.591 35.1392C100.98 35.4044 101.474 35.5369 102.076 35.5369Z" fill="#F1F9FF"/>
<defs>
<clipPath id="clip0_432_203">
<rect width="35" height="45" fill="white" transform="translate(10 7.5)"/>
</clipPath>
</defs>
</svg>
