<svg width="180" height="60" viewBox="0 0 180 60" fill="none" xmlns="http://www.w3.org/2000/svg">
<rect x="1.5" y="1.5" width="177" height="57" rx="6.5" stroke="#2C5C7F" stroke-width="3"/>
<g clip-path="url(#clip0_432_195)">
<path d="M48.9803 28.2432L31.7566 11.02C30.7653 10.0282 29.1566 10.0282 28.1638 11.02L24.5875 14.5969L29.1244 19.1338C30.1791 18.7778 31.3878 19.0166 32.2281 19.8569C33.0728 20.7025 33.3097 21.9216 32.945 22.9797L37.3175 27.3525C38.3753 26.9878 39.5963 27.2235 40.4406 28.0697C41.6219 29.25 41.6219 31.1635 40.4406 32.3444C40.1599 32.6253 39.8266 32.848 39.4598 33C39.0929 33.152 38.6997 33.2303 38.3027 33.2303C37.9056 33.2303 37.5124 33.152 37.1455 33C36.7787 32.848 36.4454 32.6253 36.1647 32.3444C35.743 31.9223 35.4556 31.385 35.3386 30.8C35.2215 30.215 35.2801 29.6084 35.5069 29.0566L31.4294 24.9791L31.4288 35.7107C31.7246 35.8563 31.9947 36.0493 32.2284 36.2819C33.4091 37.4622 33.4091 39.375 32.2284 40.5578C31.0475 41.7382 29.1334 41.7382 27.9538 40.5578C26.7731 39.3753 26.7731 37.4625 27.9538 36.2819C28.2369 35.9989 28.5732 35.7748 28.9434 35.6225V24.7916C28.5728 24.64 28.2363 24.4156 27.9538 24.1319C27.0594 23.2382 26.8441 21.9257 27.3028 20.8269L22.83 16.3541L11.02 28.1635C10.5435 28.6401 10.2759 29.2864 10.2759 29.9603C10.2759 30.6343 10.5435 31.2806 11.02 31.7572L28.2441 48.9803C29.2359 49.9722 30.8441 49.9722 31.8375 48.9803L48.9806 31.8372C49.457 31.3605 49.7246 30.7141 49.7245 30.0401C49.7244 29.3662 49.4568 28.7198 48.9803 28.2432Z" fill="#F34F29"/>
</g>
<path d="M66.7347 27.0497C66.5974 26.6188 66.4128 26.233 66.1808 25.892C65.9535 25.5464 65.6812 25.2528 65.364 25.0114C65.0468 24.7652 64.6845 24.5781 64.2773 24.4503C63.8749 24.3224 63.4322 24.2585 62.9492 24.2585C62.1301 24.2585 61.3915 24.4692 60.7333 24.8906C60.0752 25.312 59.5543 25.9299 59.1708 26.7443C58.792 27.554 58.6026 28.5459 58.6026 29.7202C58.6026 30.8991 58.7944 31.8958 59.1779 32.7102C59.5614 33.5246 60.087 34.1425 60.7546 34.5639C61.4222 34.9853 62.1822 35.196 63.0344 35.196C63.8252 35.196 64.5141 35.035 65.1012 34.7131C65.6931 34.3911 66.15 33.9366 66.4719 33.3494C66.7987 32.7576 66.962 32.0616 66.962 31.2614L67.5302 31.3679H63.3683V29.5568H69.0856V31.2116C69.0856 32.4332 68.8252 33.4938 68.3043 34.3935C67.7882 35.2884 67.0733 35.9796 66.1594 36.4673C65.2504 36.955 64.2087 37.1989 63.0344 37.1989C61.7182 37.1989 60.5629 36.8958 59.5685 36.2898C58.579 35.6837 57.8072 34.8243 57.2532 33.7116C56.6992 32.5942 56.4222 31.2685 56.4222 29.7344C56.4222 28.5743 56.5832 27.5327 56.9052 26.6094C57.2272 25.6861 57.6793 24.9025 58.2617 24.2585C58.8488 23.6098 59.5378 23.1151 60.3285 22.7741C61.1239 22.4285 61.9928 22.2557 62.935 22.2557C63.721 22.2557 64.4525 22.3717 65.1296 22.6037C65.8114 22.8357 66.4175 23.1648 66.9478 23.5909C67.4828 24.017 67.9255 24.5237 68.2759 25.1108C68.6263 25.6932 68.863 26.3395 68.9862 27.0497H66.7347ZM72.3846 37V26.0909H74.5082V37H72.3846ZM73.457 24.4077C73.0877 24.4077 72.7705 24.2846 72.5053 24.0384C72.2449 23.7874 72.1147 23.4891 72.1147 23.1435C72.1147 22.7931 72.2449 22.4948 72.5053 22.2486C72.7705 21.9976 73.0877 21.8722 73.457 21.8722C73.8263 21.8722 74.1412 21.9976 74.4016 22.2486C74.6668 22.4948 74.7994 22.7931 74.7994 23.1435C74.7994 23.4891 74.6668 23.7874 74.4016 24.0384C74.1412 24.2846 73.8263 24.4077 73.457 24.4077ZM82.4574 26.0909V27.7955H76.4986V26.0909H82.4574ZM78.0966 23.4773H80.2202V33.7969C80.2202 34.2088 80.2817 34.5189 80.4048 34.7273C80.5279 34.9309 80.6866 35.0705 80.8807 35.1463C81.0795 35.2173 81.295 35.2528 81.527 35.2528C81.6974 35.2528 81.8466 35.241 81.9744 35.2173C82.1023 35.1937 82.2017 35.1747 82.2727 35.1605L82.6562 36.9148C82.5331 36.9621 82.358 37.0095 82.1307 37.0568C81.9034 37.1089 81.6193 37.1373 81.2784 37.142C80.7197 37.1515 80.1989 37.0521 79.7159 36.8438C79.233 36.6354 78.8423 36.3134 78.544 35.8778C78.2457 35.4422 78.0966 34.8954 78.0966 34.2372V23.4773Z" fill="#F1F9FF"/>
<defs>
<clipPath id="clip0_432_195">
<rect width="40" height="40" fill="white" transform="translate(10 10)"/>
</clipPath>
</defs>
</svg>
