<svg width="180" height="60" viewBox="0 0 180 60" fill="none" xmlns="http://www.w3.org/2000/svg">
<rect x="1.5" y="1.5" width="177" height="57" rx="6.5" stroke="#2C5C7F" stroke-width="3"/>
<path d="M17.3774 44.0013L14.5699 12.5H45.4299L42.6187 43.9963L29.9812 47.5L17.3774 44.0013Z" fill="#1572B6"/>
<path d="M30 44.8225L40.2125 41.9913L42.615 15.0763H30V44.8225Z" fill="#33A9DC"/>
<path d="M30 26.4887H35.1125L35.465 22.5325H30V18.6687H39.6875L39.595 19.705L38.6462 30.3525H30V26.4887Z" fill="white"/>
<path d="M30.0238 36.5224L30.0063 36.5274L25.7038 35.3649L25.4288 32.2837H21.55L22.0913 38.3499L30.005 40.5474L30.0238 40.5424V36.5224Z" fill="#EBEBEB"/>
<path d="M34.7838 30.1887L34.3188 35.3625L30.01 36.525V40.545L37.93 38.35L37.9888 37.6975L38.66 30.1887H34.7838Z" fill="white"/>
<path d="M30.0137 18.6687V22.5325H20.6812L20.6037 21.6637L20.4275 19.705L20.335 18.6687H30.0137ZM30 26.4887V30.3525H25.7512L25.6737 29.4837L25.4987 27.525L25.4062 26.4887H30Z" fill="#EBEBEB"/>
<path d="M63.679 27.1847H61.4631C61.3778 26.7112 61.2192 26.2945 60.9872 25.9347C60.7552 25.5748 60.4711 25.2694 60.1349 25.0185C59.7988 24.7675 59.4223 24.5781 59.0057 24.4503C58.5938 24.3224 58.1558 24.2585 57.6918 24.2585C56.8537 24.2585 56.1032 24.4692 55.4403 24.8906C54.7822 25.312 54.2614 25.9299 53.8778 26.7443C53.4991 27.5587 53.3097 28.553 53.3097 29.7273C53.3097 30.911 53.4991 31.91 53.8778 32.7244C54.2614 33.5388 54.7846 34.1544 55.4474 34.571C56.1103 34.9877 56.8561 35.196 57.6847 35.196C58.1439 35.196 58.5795 35.1345 58.9915 35.0114C59.4081 34.8835 59.7846 34.6965 60.1207 34.4503C60.4569 34.2041 60.741 33.9034 60.973 33.5483C61.2098 33.1884 61.3731 32.7765 61.4631 32.3125L63.679 32.3196C63.5606 33.0346 63.331 33.6927 62.9901 34.294C62.6539 34.8906 62.2206 35.4067 61.6903 35.8423C61.1648 36.2732 60.5634 36.607 59.8864 36.8438C59.2093 37.0805 58.4706 37.1989 57.6705 37.1989C56.411 37.1989 55.2888 36.9006 54.304 36.304C53.3191 35.7027 52.5426 34.8433 51.9744 33.7259C51.411 32.6084 51.1293 31.2756 51.1293 29.7273C51.1293 28.1742 51.4134 26.8414 51.9815 25.7287C52.5497 24.6113 53.3262 23.7543 54.3111 23.1577C55.2959 22.5563 56.4157 22.2557 57.6705 22.2557C58.4422 22.2557 59.1619 22.367 59.8295 22.5895C60.5019 22.8073 61.1056 23.1293 61.6406 23.5554C62.1757 23.9768 62.6184 24.4929 62.9688 25.1037C63.3191 25.7098 63.5559 26.4034 63.679 27.1847ZM74.2383 26.2756C74.1625 25.6032 73.85 25.0824 73.3008 24.7131C72.7515 24.339 72.0603 24.152 71.2269 24.152C70.6303 24.152 70.1142 24.2467 69.6786 24.4361C69.243 24.6207 68.9045 24.8764 68.663 25.2031C68.4263 25.5251 68.3079 25.892 68.3079 26.304C68.3079 26.6496 68.3884 26.9479 68.5494 27.1989C68.7151 27.4498 68.9305 27.6605 69.1957 27.831C69.4656 27.9967 69.7544 28.1364 70.0621 28.25C70.3699 28.3589 70.6658 28.4489 70.9499 28.5199L72.3704 28.8892C72.8344 29.0028 73.3103 29.1567 73.7979 29.3509C74.2856 29.545 74.7378 29.8007 75.1545 30.1179C75.5711 30.4351 75.9073 30.8281 76.163 31.2969C76.4234 31.7656 76.5536 32.3267 76.5536 32.9801C76.5536 33.804 76.3406 34.5355 75.9144 35.1747C75.493 35.8139 74.8799 36.3182 74.0749 36.6875C73.2747 37.0568 72.3065 37.2415 71.1701 37.2415C70.0811 37.2415 69.1388 37.0687 68.3434 36.723C67.5479 36.3774 66.9253 35.8873 66.4755 35.2528C66.0257 34.6136 65.7771 33.8561 65.7298 32.9801H67.9315C67.9741 33.5057 68.1445 33.9437 68.4428 34.294C68.7459 34.6397 69.1317 34.8977 69.6005 35.0682C70.074 35.2339 70.5924 35.3168 71.1559 35.3168C71.7762 35.3168 72.3278 35.2197 72.8107 35.0256C73.2984 34.8267 73.6819 34.5521 73.9613 34.2017C74.2406 33.8466 74.3803 33.4323 74.3803 32.9588C74.3803 32.5279 74.2572 32.1752 74.011 31.9006C73.7695 31.6259 73.4405 31.3987 73.0238 31.2188C72.6119 31.0388 72.1455 30.8802 71.6246 30.7429L69.9059 30.2741C68.7411 29.9569 67.8178 29.4905 67.136 28.875C66.4589 28.2595 66.1204 27.4451 66.1204 26.4318C66.1204 25.5937 66.3477 24.8622 66.8022 24.2372C67.2567 23.6122 67.8723 23.1269 68.6488 22.7812C69.4253 22.4309 70.3013 22.2557 71.2766 22.2557C72.2615 22.2557 73.1303 22.4285 73.8832 22.7741C74.6407 23.1198 75.2373 23.5956 75.6729 24.2017C76.1085 24.803 76.3358 25.4943 76.3548 26.2756H74.2383ZM87.1094 26.2756C87.0336 25.6032 86.7211 25.0824 86.1719 24.7131C85.6226 24.339 84.9313 24.152 84.098 24.152C83.5014 24.152 82.9853 24.2467 82.5497 24.4361C82.1141 24.6207 81.7756 24.8764 81.5341 25.2031C81.2973 25.5251 81.179 25.892 81.179 26.304C81.179 26.6496 81.2595 26.9479 81.4205 27.1989C81.5862 27.4498 81.8016 27.6605 82.0668 27.831C82.3366 27.9967 82.6255 28.1364 82.9332 28.25C83.241 28.3589 83.5369 28.4489 83.821 28.5199L85.2415 28.8892C85.7055 29.0028 86.1813 29.1567 86.669 29.3509C87.1567 29.545 87.6089 29.8007 88.0256 30.1179C88.4422 30.4351 88.7784 30.8281 89.0341 31.2969C89.2945 31.7656 89.4247 32.3267 89.4247 32.9801C89.4247 33.804 89.2116 34.5355 88.7855 35.1747C88.3641 35.8139 87.7509 36.3182 86.946 36.6875C86.1458 37.0568 85.1776 37.2415 84.0412 37.2415C82.9522 37.2415 82.0099 37.0687 81.2145 36.723C80.419 36.3774 79.7964 35.8873 79.3466 35.2528C78.8968 34.6136 78.6482 33.8561 78.6009 32.9801H80.8026C80.8452 33.5057 81.0156 33.9437 81.3139 34.294C81.617 34.6397 82.0028 34.8977 82.4716 35.0682C82.9451 35.2339 83.4635 35.3168 84.027 35.3168C84.6473 35.3168 85.1989 35.2197 85.6818 35.0256C86.1695 34.8267 86.553 34.5521 86.8324 34.2017C87.1117 33.8466 87.2514 33.4323 87.2514 32.9588C87.2514 32.5279 87.1283 32.1752 86.8821 31.9006C86.6406 31.6259 86.3116 31.3987 85.8949 31.2188C85.483 31.0388 85.0166 30.8802 84.4957 30.7429L82.777 30.2741C81.6122 29.9569 80.6889 29.4905 80.0071 28.875C79.33 28.2595 78.9915 27.4451 78.9915 26.4318C78.9915 25.5937 79.2188 24.8622 79.6733 24.2372C80.1278 23.6122 80.7434 23.1269 81.5199 22.7812C82.2964 22.4309 83.1723 22.2557 84.1477 22.2557C85.1326 22.2557 86.0014 22.4285 86.7543 22.7741C87.5118 23.1198 88.1084 23.5956 88.544 24.2017C88.9796 24.803 89.2069 25.4943 89.2259 26.2756H87.1094ZM102.205 37.1989C101.23 37.1989 100.359 37.0308 99.5916 36.6946C98.8293 36.3584 98.2256 35.892 97.7805 35.2955C97.3402 34.6941 97.1035 33.9981 97.0703 33.2074H99.3004C99.3288 33.6383 99.4732 34.0123 99.7337 34.3295C99.9988 34.642 100.344 34.8835 100.771 35.054C101.197 35.2244 101.67 35.3097 102.191 35.3097C102.764 35.3097 103.271 35.2102 103.711 35.0114C104.156 34.8125 104.504 34.5355 104.755 34.1804C105.006 33.8205 105.131 33.4062 105.131 32.9375C105.131 32.4498 105.006 32.0213 104.755 31.652C104.509 31.2779 104.147 30.9844 103.668 30.7713C103.195 30.5582 102.622 30.4517 101.95 30.4517H100.721V28.6619H101.95C102.489 28.6619 102.963 28.5649 103.37 28.3707C103.782 28.1766 104.104 27.9067 104.336 27.5611C104.568 27.2107 104.684 26.8011 104.684 26.3324C104.684 25.8826 104.582 25.492 104.379 25.1605C104.18 24.8243 103.896 24.5616 103.526 24.3722C103.162 24.1828 102.731 24.0881 102.234 24.0881C101.76 24.0881 101.317 24.1757 100.906 24.3509C100.498 24.5213 100.167 24.7675 99.9112 25.0895C99.6555 25.4067 99.5182 25.7879 99.4993 26.233H97.3757C97.3994 25.447 97.6314 24.7557 98.0717 24.1591C98.5168 23.5625 99.1039 23.0961 99.8331 22.7599C100.562 22.4238 101.372 22.2557 102.262 22.2557C103.195 22.2557 104 22.438 104.677 22.8026C105.359 23.1624 105.884 23.643 106.254 24.2443C106.628 24.8456 106.812 25.5038 106.808 26.2188C106.812 27.0331 106.585 27.7244 106.126 28.2926C105.671 28.8608 105.065 29.242 104.308 29.4361V29.5497C105.273 29.6965 106.022 30.08 106.552 30.7003C107.087 31.3205 107.352 32.09 107.347 33.0085C107.352 33.8087 107.129 34.526 106.68 35.1605C106.235 35.795 105.626 36.2945 104.854 36.6591C104.083 37.0189 103.2 37.1989 102.205 37.1989Z" fill="#F1F9FF"/>
</svg>
